<svg xmlns="http://www.w3.org/2000/svg" width="480" height="200" viewBox="0 0 480 200"><title>Chú Lộc · 52 tuổi · Thợ sửa xe</title><g transform="translate(0 8)"><g transform="translate(0 0)" stroke-linejoin="round" stroke-linecap="round">
 
 <path d="M49 131L43 173M71 131L78 173" fill="none" stroke="#5575a0" stroke-width="13"/>
 <ellipse cx="43" cy="178" rx="13" ry="5" fill="#4a4038"/><ellipse cx="78" cy="178" rx="13" ry="5" fill="#4a4038"/>
 
 <path d="M40 84q-12 12-13 36l10 1 7-25m33-12q12 12 14 36l-10 1-6-25" fill="#82639a" stroke="#554437" stroke-width="2"/>
 <ellipse cx="30" cy="125" rx="6" ry="8" fill="#f6d4b1"/><ellipse cx="88" cy="125" rx="6" ry="8" fill="#f6d4b1"/>
 <path d="M44 78q16-10 32 0l8 57H36z" fill="#82639a" stroke="#554437" stroke-width="2"/>
 <path d="M60 82v49" stroke="#e3cdb0" stroke-width="1.5"/><circle cx="63" cy="98" r="1.7" fill="#554437"/><circle cx="63" cy="109" r="1.7" fill="#554437"/>
 <path d="M52 68v14q8 7 16 0V68" fill="#f6d4b1" stroke="#554437" stroke-width="1.5"/>
 <ellipse cx="34" cy="52" rx="5" ry="7" fill="#f6d4b1"/><ellipse cx="86" cy="52" rx="5" ry="7" fill="#f6d4b1"/>
 <ellipse cx="60" cy="48" rx="26" ry="29" fill="#f6d4b1" stroke="#554437" stroke-width="1.8"/>
 <path d="M33 41q-5-29 27-29t27 29q-15-2-23-13-9 14-31 13z" fill="#6a6258"/>
 <path d="M43 42l10-1m14 0l10 1" stroke="#554437" stroke-width="1.8"/>
 <ellipse cx="48" cy="51" rx="2.5" ry="3.5" fill="#322c26"/><ellipse cx="72" cy="51" rx="2.5" ry="3.5" fill="#322c26"/>
 <circle cx="47" cy="50" r="0.8" fill="white"/><circle cx="71" cy="50" r="0.8" fill="white"/>
 <ellipse cx="40" cy="61" rx="5" ry="2.6" fill="#d18a73" opacity=".4"/><ellipse cx="80" cy="61" rx="5" ry="2.6" fill="#d18a73" opacity=".4"/>
 <path d="M60 53l-2 7h4M53 67q7 6 14 0" fill="none" stroke="#96674e" stroke-width="1.6"/>
 <path d="M48 65q6-9 12-2 6-7 12 2-10 7-12 1-4 5-12-1" fill="#6a6258"/><path d="M32 40q1-26 27-26t29 26z" fill="#5575a0" stroke="#554437" stroke-width="2"/><path d="M58 39h36q5 9-31 5" fill="#82639a" stroke="#554437" stroke-width="2"/><g stroke="#554437" stroke-width="1.8" stroke-linejoin="round"><rect x="72" y="122" width="32" height="23" rx="3" fill="#5575a0"/><path d="M82 122v-6h12v6" fill="none"/><path d="M91 107l-6 22" stroke="#ccd3cd" stroke-width="5"/><path d="M86 103l11 3" stroke="#ccd3cd" stroke-width="7"/></g>
 </g></g><g transform="translate(120 8)"><g transform="translate(0 -2)" stroke-linejoin="round" stroke-linecap="round">
 
 <path d="M49 131L36 173M71 131L85 173" fill="none" stroke="#5575a0" stroke-width="13"/>
 <ellipse cx="36" cy="178" rx="13" ry="5" fill="#4a4038"/><ellipse cx="85" cy="178" rx="13" ry="5" fill="#4a4038"/>
 
 <path d="M40 84q-12 12-13 43l10 1 7-25m33-12q12 12 14 29l-10 1-6-25" fill="#82639a" stroke="#554437" stroke-width="2"/>
 <ellipse cx="30" cy="132" rx="6" ry="8" fill="#f6d4b1"/><ellipse cx="88" cy="118" rx="6" ry="8" fill="#f6d4b1"/>
 <path d="M44 78q16-10 32 0l8 57H36z" fill="#82639a" stroke="#554437" stroke-width="2"/>
 <path d="M60 82v49" stroke="#e3cdb0" stroke-width="1.5"/><circle cx="63" cy="98" r="1.7" fill="#554437"/><circle cx="63" cy="109" r="1.7" fill="#554437"/>
 <path d="M52 68v14q8 7 16 0V68" fill="#f6d4b1" stroke="#554437" stroke-width="1.5"/>
 <ellipse cx="34" cy="52" rx="5" ry="7" fill="#f6d4b1"/><ellipse cx="86" cy="52" rx="5" ry="7" fill="#f6d4b1"/>
 <ellipse cx="60" cy="48" rx="26" ry="29" fill="#f6d4b1" stroke="#554437" stroke-width="1.8"/>
 <path d="M33 41q-5-29 27-29t27 29q-15-2-23-13-9 14-31 13z" fill="#6a6258"/>
 <path d="M43 42l10-1m14 0l10 1" stroke="#554437" stroke-width="1.8"/>
 <ellipse cx="48" cy="51" rx="2.5" ry="3.5" fill="#322c26"/><ellipse cx="72" cy="51" rx="2.5" ry="3.5" fill="#322c26"/>
 <circle cx="47" cy="50" r="0.8" fill="white"/><circle cx="71" cy="50" r="0.8" fill="white"/>
 <ellipse cx="40" cy="61" rx="5" ry="2.6" fill="#d18a73" opacity=".4"/><ellipse cx="80" cy="61" rx="5" ry="2.6" fill="#d18a73" opacity=".4"/>
 <path d="M60 53l-2 7h4M53 67q7 6 14 0" fill="none" stroke="#96674e" stroke-width="1.6"/>
 <path d="M48 65q6-9 12-2 6-7 12 2-10 7-12 1-4 5-12-1" fill="#6a6258"/><path d="M32 40q1-26 27-26t29 26z" fill="#5575a0" stroke="#554437" stroke-width="2"/><path d="M58 39h36q5 9-31 5" fill="#82639a" stroke="#554437" stroke-width="2"/><g stroke="#554437" stroke-width="1.8" stroke-linejoin="round"><rect x="72" y="122" width="32" height="23" rx="3" fill="#5575a0"/><path d="M82 122v-6h12v6" fill="none"/><path d="M91 107l-6 22" stroke="#ccd3cd" stroke-width="5"/><path d="M86 103l11 3" stroke="#ccd3cd" stroke-width="7"/></g>
 </g></g><g transform="translate(240 8)"><g transform="translate(0 0)" stroke-linejoin="round" stroke-linecap="round">
 
 <path d="M49 131L43 173M71 131L78 173" fill="none" stroke="#5575a0" stroke-width="13"/>
 <ellipse cx="43" cy="178" rx="13" ry="5" fill="#4a4038"/><ellipse cx="78" cy="178" rx="13" ry="5" fill="#4a4038"/>
 
 <path d="M40 84q-12 12-13 36l10 1 7-25m33-12q12 12 14 36l-10 1-6-25" fill="#82639a" stroke="#554437" stroke-width="2"/>
 <ellipse cx="30" cy="125" rx="6" ry="8" fill="#f6d4b1"/><ellipse cx="88" cy="125" rx="6" ry="8" fill="#f6d4b1"/>
 <path d="M44 78q16-10 32 0l8 57H36z" fill="#82639a" stroke="#554437" stroke-width="2"/>
 <path d="M60 82v49" stroke="#e3cdb0" stroke-width="1.5"/><circle cx="63" cy="98" r="1.7" fill="#554437"/><circle cx="63" cy="109" r="1.7" fill="#554437"/>
 <path d="M52 68v14q8 7 16 0V68" fill="#f6d4b1" stroke="#554437" stroke-width="1.5"/>
 <ellipse cx="34" cy="52" rx="5" ry="7" fill="#f6d4b1"/><ellipse cx="86" cy="52" rx="5" ry="7" fill="#f6d4b1"/>
 <ellipse cx="60" cy="48" rx="26" ry="29" fill="#f6d4b1" stroke="#554437" stroke-width="1.8"/>
 <path d="M33 41q-5-29 27-29t27 29q-15-2-23-13-9 14-31 13z" fill="#6a6258"/>
 <path d="M43 42l10-1m14 0l10 1" stroke="#554437" stroke-width="1.8"/>
 <ellipse cx="48" cy="51" rx="2.5" ry="3.5" fill="#322c26"/><ellipse cx="72" cy="51" rx="2.5" ry="3.5" fill="#322c26"/>
 <circle cx="47" cy="50" r="0.8" fill="white"/><circle cx="71" cy="50" r="0.8" fill="white"/>
 <ellipse cx="40" cy="61" rx="5" ry="2.6" fill="#d18a73" opacity=".4"/><ellipse cx="80" cy="61" rx="5" ry="2.6" fill="#d18a73" opacity=".4"/>
 <path d="M60 53l-2 7h4M53 67q7 6 14 0" fill="none" stroke="#96674e" stroke-width="1.6"/>
 <path d="M48 65q6-9 12-2 6-7 12 2-10 7-12 1-4 5-12-1" fill="#6a6258"/><path d="M32 40q1-26 27-26t29 26z" fill="#5575a0" stroke="#554437" stroke-width="2"/><path d="M58 39h36q5 9-31 5" fill="#82639a" stroke="#554437" stroke-width="2"/><g stroke="#554437" stroke-width="1.8" stroke-linejoin="round"><rect x="72" y="122" width="32" height="23" rx="3" fill="#5575a0"/><path d="M82 122v-6h12v6" fill="none"/><path d="M91 107l-6 22" stroke="#ccd3cd" stroke-width="5"/><path d="M86 103l11 3" stroke="#ccd3cd" stroke-width="7"/></g>
 </g></g><g transform="translate(360 8)"><g transform="translate(0 -2)" stroke-linejoin="round" stroke-linecap="round">
 
 <path d="M49 131L50 173M71 131L71 173" fill="none" stroke="#5575a0" stroke-width="13"/>
 <ellipse cx="50" cy="178" rx="13" ry="5" fill="#4a4038"/><ellipse cx="71" cy="178" rx="13" ry="5" fill="#4a4038"/>
 
 <path d="M40 84q-12 12-13 29l10 1 7-25m33-12q12 12 14 43l-10 1-6-25" fill="#82639a" stroke="#554437" stroke-width="2"/>
 <ellipse cx="30" cy="118" rx="6" ry="8" fill="#f6d4b1"/><ellipse cx="88" cy="132" rx="6" ry="8" fill="#f6d4b1"/>
 <path d="M44 78q16-10 32 0l8 57H36z" fill="#82639a" stroke="#554437" stroke-width="2"/>
 <path d="M60 82v49" stroke="#e3cdb0" stroke-width="1.5"/><circle cx="63" cy="98" r="1.7" fill="#554437"/><circle cx="63" cy="109" r="1.7" fill="#554437"/>
 <path d="M52 68v14q8 7 16 0V68" fill="#f6d4b1" stroke="#554437" stroke-width="1.5"/>
 <ellipse cx="34" cy="52" rx="5" ry="7" fill="#f6d4b1"/><ellipse cx="86" cy="52" rx="5" ry="7" fill="#f6d4b1"/>
 <ellipse cx="60" cy="48" rx="26" ry="29" fill="#f6d4b1" stroke="#554437" stroke-width="1.8"/>
 <path d="M33 41q-5-29 27-29t27 29q-15-2-23-13-9 14-31 13z" fill="#6a6258"/>
 <path d="M43 42l10-1m14 0l10 1" stroke="#554437" stroke-width="1.8"/>
 <ellipse cx="48" cy="51" rx="2.5" ry="3.5" fill="#322c26"/><ellipse cx="72" cy="51" rx="2.5" ry="3.5" fill="#322c26"/>
 <circle cx="47" cy="50" r="0.8" fill="white"/><circle cx="71" cy="50" r="0.8" fill="white"/>
 <ellipse cx="40" cy="61" rx="5" ry="2.6" fill="#d18a73" opacity=".4"/><ellipse cx="80" cy="61" rx="5" ry="2.6" fill="#d18a73" opacity=".4"/>
 <path d="M60 53l-2 7h4M53 67q7 6 14 0" fill="none" stroke="#96674e" stroke-width="1.6"/>
 <path d="M48 65q6-9 12-2 6-7 12 2-10 7-12 1-4 5-12-1" fill="#6a6258"/><path d="M32 40q1-26 27-26t29 26z" fill="#5575a0" stroke="#554437" stroke-width="2"/><path d="M58 39h36q5 9-31 5" fill="#82639a" stroke="#554437" stroke-width="2"/><g stroke="#554437" stroke-width="1.8" stroke-linejoin="round"><rect x="72" y="122" width="32" height="23" rx="3" fill="#5575a0"/><path d="M82 122v-6h12v6" fill="none"/><path d="M91 107l-6 22" stroke="#ccd3cd" stroke-width="5"/><path d="M86 103l11 3" stroke="#ccd3cd" stroke-width="7"/></g>
 </g></g></svg>